<svg fill="#000000" xmlns="http://www.w3.org/2000/svg" viewBox="0 0 30 30" width="30px" height="30px">
  <path
    d="M 9 4 C 6.901 4 2.9258125 4.9872969 2.7578125 5.0292969 C 2.3118125 5.1412969 2 5.541 2 6 L 2 7.2773438 C 1.405 7.6233438 1 8.261 1 9 L 1 24 C 1 25.105 1.895 26 3 26 L 13.267578 26 A 2 2 0 0 0 15 27 A 2 2 0 0 0 16.728516 26 L 20.671875 26 L 17.169922 22.498047 C 16.657271 22.599391 16.391599 22.664798 16 22.751953 L 16 6.8027344 C 16.980555 6.5706644 19.465673 6 21 6 C 22.352 6 24.772 6.5110156 26 6.7910156 L 26 20.671875 L 28.957031 23.628906 C 28.973031 23.644906 28.984 23.665641 29 23.681641 L 29 9 C 29 8.261 28.595 7.6233438 28 7.2773438 L 28 6 C 28 5.541 27.687187 5.1412969 27.242188 5.0292969 C 27.074188 4.9872969 23.099 4 21 4 C 19.172 4 15.919 4.7497031 15 4.9707031 C 14.081 4.7497031 10.828 4 9 4 z M 9 6 C 10.534327 6 13.019445 6.5706644 14 6.8027344 L 14 22.757812 C 12.648994 22.454086 10.484224 22 9 22 C 7.606 22 5.385 22.436234 4 22.740234 L 4 6.7910156 C 5.228 6.5110156 7.648 6 9 6 z M 19 19 L 19.474609 21.976562 L 25.042969 27.542969 L 27.542969 25.042969 L 21.974609 19.476562 L 19 19 z M 28.957031 26.457031 L 26.457031 28.957031 L 26.982422 29.482422 C 27.672422 30.172422 28.792422 30.172422 29.482422 29.482422 C 30.172422 28.792422 30.172422 27.672422 29.482422 26.982422 L 28.957031 26.457031 z" />
  </svg>