<svg fill="#000000" xmlns="http://www.w3.org/2000/svg"  viewBox="0 0 50 50" width="50px" height="50px"><path d="M 10.523438 4 C 5.273438 4 1 8.0625 1 13.050781 C 1 21.242188 15.777344 32.242188 16.40625 32.703125 L 17 33.140625 L 17.59375 32.707031 C 17.644531 32.667969 18.363281 32.136719 19.453125 31.261719 C 19.511719 31.097656 19.570313 30.929688 19.644531 30.769531 C 19.210938 29.503906 18.996094 28.234375 19 26.988281 C 19.015625 22.375 21.960938 19.234375 25.019531 18.296875 C 26.25 16.582031 28.574219 15 31.996094 15 C 32.257813 15 32.496094 15.035156 32.746094 15.058594 C 32.832031 14.703125 32.898438 14.351563 32.941406 14.015625 C 32.980469 13.699219 33 13.355469 33 13.050781 C 33 8.0625 28.726563 4 23.476563 4 C 22.703125 4 21.917969 4.109375 21.144531 4.324219 C 19.664063 4.738281 18.195313 5.570313 16.996094 6.664063 C 15.453125 5.269531 13.136719 4 10.523438 4 Z M 31.996094 17 C 29.046875 17 27.09375 18.445313 26.289063 20.054688 C 23.628906 20.460938 21.011719 23.144531 21 26.996094 C 20.996094 27.644531 21.082031 28.300781 21.222656 28.964844 C 22.039063 28.542969 23.402344 28 25 28 C 27.207031 28 28.484375 29.140625 28.625 29.269531 C 29.027344 29.648438 29.046875 30.28125 28.671875 30.683594 C 28.292969 31.082031 27.667969 31.105469 27.265625 30.734375 C 27.214844 30.695313 26.410156 30 25 30 C 24.074219 30 23.234375 30.25 22.625 30.515625 C 22.375 30.625 22.035156 30.917969 21.9375 31 C 21.773438 31.136719 21.46875 31.613281 21.410156 31.75 C 21.148438 32.367188 21.003906 33 21 33.613281 C 20.980469 35.292969 21.90625 36.6875 23.515625 37.503906 C 23.175781 38.21875 23 38.925781 23 39.625 C 22.996094 40.710938 23.410156 41.703125 24.199219 42.496094 C 25.007813 43.304688 26.171875 43.835938 27.390625 43.96875 C 28.734375 46 30.988281 46 31.996094 46 C 32.035156 46 32.074219 46 32.113281 46 C 33.175781 45.964844 34 45.058594 34 43.996094 L 34 19 C 34 17.929688 33.160156 17.015625 32.089844 17 C 32.058594 17 32.027344 17 31.996094 17 Z M 38.003906 17 C 37.972656 17 37.941406 17 37.910156 17 C 36.839844 17.015625 36 17.929688 36 19 L 36 43.996094 C 36 45.054688 36.824219 45.964844 37.886719 46 C 37.925781 46 37.964844 46 38.003906 46 C 38.652344 46 39.816406 45.992188 40.921875 45.449219 C 38.398438 44.414063 38 42.09375 38 40 C 38 39.445313 38.449219 39 39 39 C 39.550781 39 40 39.445313 40 40 C 40 41.824219 40.203125 43.304688 42.34375 43.8125 C 42.511719 43.851563 43.25 43.847656 43.421875 43.800781 C 44.332031 43.570313 45.167969 43.125 45.792969 42.5 C 46.582031 41.707031 47 40.710938 46.996094 39.625 C 46.996094 38.929688 46.824219 38.222656 46.480469 37.503906 C 48.09375 36.6875 49.015625 35.292969 49 33.613281 C 48.996094 33.246094 48.933594 32.867188 48.839844 32.488281 C 47.761719 33.371094 46.207031 34 44 34 C 43.449219 34 43 33.554688 43 33 C 43 32.445313 43.449219 32 44 32 C 48.09375 32 48.867188 29.40625 48.96875 28.375 C 49.007813 27.957031 49 27.511719 49 27 C 49 23.144531 46.382813 20.457031 43.710938 20.050781 C 42.90625 18.445313 40.953125 17 38.003906 17 Z M 30.847656 22.011719 C 30.976563 21.992188 31.109375 21.996094 31.242188 22.03125 C 31.777344 22.164063 32.105469 22.707031 31.96875 23.242188 C 31.730469 24.195313 30.59375 26 28 26 C 27.449219 26 27 25.554688 27 25 C 27 24.445313 27.449219 24 28 24 C 29.699219 24 30.027344 22.769531 30.03125 22.757813 C 30.128906 22.355469 30.464844 22.070313 30.847656 22.011719 Z M 39 23 C 39.550781 23 40 23.445313 40 24 C 40 24.632813 40.679688 27 44 27 C 44.550781 27 45 27.445313 45 28 C 45 28.554688 44.550781 29 44 29 C 39.859375 29 38 26.074219 38 24 C 38 23.445313 38.449219 23 39 23 Z M 28.820313 34.019531 C 28.949219 33.996094 29.082031 33.996094 29.21875 34.023438 C 30.539063 34.316406 32.09375 35.398438 32.003906 38.886719 L 32 39 C 32 39.554688 31.550781 40 31 40 C 30.449219 40 30 39.554688 30 39 L 30.003906 38.832031 C 30.050781 37.101563 29.648438 36.167969 28.78125 35.976563 C 28.246094 35.855469 27.902344 35.320313 28.023438 34.78125 C 28.113281 34.378906 28.4375 34.089844 28.820313 34.019531 Z"/></svg>