<svg width="347" height="309" viewBox="0 0 347 309" fill="none" xmlns="http://www.w3.org/2000/svg">
  <path
    d="M270.722 90.9592L256.832 101.396C265.627 118.04 270.607 137.009 270.607 157.144C270.607 223.129 217.115 276.619 151.131 276.619C85.1459 276.619 31.6556 223.129 31.6556 157.144C31.6556 91.1595 85.1459 37.6675 151.131 37.6675C183.058 37.6675 212.059 50.1899 233.491 70.5922L247.507 60.061L249.977 42.8163C223.479 19.885 188.924 6.01282 151.131 6.01282C67.6638 6.01282 0 73.6755 0 157.144C0 240.611 67.6638 308.276 151.131 308.276C234.599 308.276 302.262 240.611 302.262 157.144C302.262 134.374 297.226 112.784 288.21 93.4196L270.722 90.9592Z"
    fill="#000000" />
  <path
    d="M61.9738 157.144C61.9738 206.385 101.892 246.301 151.131 246.301C200.371 246.301 240.29 206.385 240.29 157.144C240.29 143.858 237.382 131.252 232.171 119.925L207.567 138.412C209.521 144.301 210.582 150.597 210.582 157.144C210.582 189.976 183.965 216.593 151.131 216.593C118.299 216.593 91.6815 189.976 91.6815 157.144C91.6815 124.31 118.299 97.6932 151.131 97.6932C163.338 97.6932 174.685 101.375 184.124 107.685L208.798 89.1459C193.252 75.9467 173.122 67.9853 151.131 67.9853C101.892 67.9853 61.9738 107.904 61.9738 157.144Z"
    fill="#000000" />
  <path
    d="M309.037 37.9993L312.569 -3.05176e-05L258.723 40.4578L255.258 64.6479L166.234 131.537C161.808 128.921 156.645 127.418 151.131 127.418C134.715 127.418 121.406 140.726 121.406 157.144C121.406 173.56 134.715 186.869 151.131 186.869C167.549 186.869 180.857 173.56 180.857 157.144C180.857 154.296 180.455 151.541 179.708 148.934L268.473 82.2376L292.673 85.6416L346.519 45.1838L309.037 37.9993Z"
    fill="#000000" />
</svg>